<?xml version="1.0" encoding="UTF-8"?>
<svg width="47px" height="47px" viewBox="0 0 47 47" version="1.1" xmlns="http://www.w3.org/2000/svg" xmlns:xlink="http://www.w3.org/1999/xlink">
    <title>backward</title>
    <g id="Page-1" stroke="none" stroke-width="1" fill="none" fill-rule="evenodd">
        <g id="backward" transform="translate(-0.000000, 0.000000)" fill-rule="nonzero">
            <circle id="Oval" fill="currentColor" cx="23.5" cy="23.5" r="23.5"></circle>
            <path d="M20.3674297,18.0244326 L28.0636979,28.7634115 C28.3672038,29.1869082 28.2699321,29.7762603 27.8464354,30.0797663 C27.6862025,30.1945999 27.4940221,30.2563539 27.2968893,30.2563539 L11.9043528,30.2563539 C11.3833295,30.2563539 10.9609566,29.833981 10.9609566,29.3129577 C10.9609566,29.1158249 11.0227106,28.9236444 11.1375442,28.7634115 L18.8338124,18.0244326 C19.1373184,17.6009359 19.7266705,17.5036642 20.1501672,17.8071702 C20.2339741,17.8672318 20.3073681,17.9406258 20.3674297,18.0244326 Z" id="Triangle" fill="#FFFFFF" transform="translate(19.600657, 23.943432) rotate(270.000000) translate(-19.600657, -23.943432) "></path>
            <path d="M28.3674297,18.0244326 L36.0636979,28.7634115 C36.3672038,29.1869082 36.2699321,29.7762603 35.8464354,30.0797663 C35.6862025,30.1945999 35.4940221,30.2563539 35.2968893,30.2563539 L19.9043528,30.2563539 C19.3833295,30.2563539 18.9609566,29.833981 18.9609566,29.3129577 C18.9609566,29.1158249 19.0227106,28.9236444 19.1375442,28.7634115 L26.8338124,18.0244326 C27.1373184,17.6009359 27.7266705,17.5036642 28.1501672,17.8071702 C28.2339741,17.8672318 28.3073681,17.9406258 28.3674297,18.0244326 Z" id="Triangle" fill="#FFFFFF" transform="translate(27.600657, 23.943432) rotate(270.000000) translate(-27.600657, -23.943432) "></path>
        </g>
    </g>
</svg>