<?xml version="1.0" encoding="UTF-8"?>
<svg width="24px" height="26px" viewBox="0 0 24 26" version="1.1" xmlns="http://www.w3.org/2000/svg" xmlns:xlink="http://www.w3.org/1999/xlink">
    <title>calendar</title>
    <g id="Page-1" stroke="none" stroke-width="1" fill="none" fill-rule="evenodd">
        <path d="M16.6666663,0.166667 C17.3109985,0.166667 17.833333,0.689001459 17.833333,1.33333367 L17.833333,1.33333367 L17.833333,2.499667 L20.1666663,2.50000033 C22.099663,2.50000033 23.6666663,4.06700371 23.6666663,6.00000033 L23.6666663,22.3333337 C23.6666663,24.2663303 22.099663,25.8333337 20.1666663,25.8333337 L3.833333,25.8333337 C1.90033638,25.8333337 0.333333,24.2663303 0.333333,22.3333337 L0.333333,6.00000033 C0.333333,4.06700371 1.90033638,2.50000033 3.833333,2.50000033 L6.166333,2.499667 L6.16666633,1.33333367 C6.16666633,0.731956939 6.62167768,0.236853807 7.20621181,0.173512841 L7.333333,0.166667 C7.97766521,0.166667 8.49999967,0.689001459 8.49999967,1.33333367 L8.49999967,1.33333367 L8.499333,2.499667 L15.499333,2.499667 L15.4999997,1.33333367 C15.4999997,0.731956939 15.955011,0.236853807 16.5395451,0.173512841 L16.6666663,0.166667 Z M21.333333,11.832667 L2.666333,11.832667 L2.66666633,22.3333337 C2.66666633,22.9776659 3.18900079,23.5000003 3.833333,23.5000003 L20.1666663,23.5000003 C20.8109985,23.5000003 21.333333,22.9776659 21.333333,22.3333337 L21.333333,11.832667 Z M6.166333,4.832667 L3.833333,4.83333367 C3.18900079,4.83333367 2.66666633,5.35566813 2.66666633,6.00000033 L2.666333,9.499667 L21.333333,9.499667 L21.333333,6.00000033 C21.333333,5.35566813 20.8109985,4.83333367 20.1666663,4.83333367 L17.833333,4.832667 L17.833333,6.00000033 C17.833333,6.60137706 17.3783216,7.09648019 16.7937875,7.15982116 L16.6666663,7.166667 C16.0223341,7.166667 15.4999997,6.64433254 15.4999997,6.00000033 L15.4999997,6.00000033 L15.499333,4.832667 L8.499333,4.832667 L8.49999967,6.00000033 C8.49999967,6.60137706 8.04498832,7.09648019 7.46045419,7.15982116 L7.333333,7.166667 C6.68900079,7.166667 6.16666633,6.64433254 6.16666633,6.00000033 L6.16666633,6.00000033 L6.166333,4.832667 Z" id="calendar" fill="#000000" fill-rule="nonzero"></path>
    </g>
</svg>