<?xml version="1.0" encoding="UTF-8"?>
<svg width="24px" height="26px" viewBox="0 0 24 26" version="1.1" xmlns="http://www.w3.org/2000/svg" xmlns:xlink="http://www.w3.org/1999/xlink">
    <title>FA1A208B-9CD1-44B2-B9FD-77229B18780E@1,5x</title>
    <defs>
        <path d="M16.3333333,0 C16.9776655,0 17.5,0.522334459 17.5,1.16666667 L17.5,1.16666667 L17.5,2.333 L19.8333333,2.33333333 C21.76633,2.33333333 23.3333333,3.90033671 23.3333333,5.83333333 L23.3333333,22.1666667 C23.3333333,24.0996633 21.76633,25.6666667 19.8333333,25.6666667 L3.5,25.6666667 C1.56700338,25.6666667 0,24.0996633 0,22.1666667 L0,5.83333333 C0,3.90033671 1.56700338,2.33333333 3.5,2.33333333 L5.833,2.333 L5.83333333,1.16666667 C5.83333333,0.565289939 6.28834468,0.0701868067 6.87287881,0.00684584116 L7,0 C7.64433221,0 8.16666667,0.522334459 8.16666667,1.16666667 L8.16666667,1.16666667 L8.166,2.333 L15.166,2.333 L15.1666667,1.16666667 C15.1666667,0.565289939 15.621678,0.0701868067 16.2062121,0.00684584116 Z M21,11.666 L2.333,11.666 L2.33333333,22.1666667 C2.33333333,22.8109989 2.85566779,23.3333333 3.5,23.3333333 L19.8333333,23.3333333 C20.4776655,23.3333333 21,22.8109989 21,22.1666667 L21,11.666 Z M5.833,4.666 L3.5,4.66666667 C2.85566779,4.66666667 2.33333333,5.18900113 2.33333333,5.83333333 L2.333,9.333 L21,9.333 L21,5.83333333 C21,5.18900113 20.4776655,4.66666667 19.8333333,4.66666667 L17.5,4.666 L17.5,5.83333333 C17.5,6.43471006 17.0449886,6.92981319 16.4604545,6.99315416 L16.3333333,7 C15.6890011,7 15.1666667,6.47766554 15.1666667,5.83333333 L15.1666667,5.83333333 L15.166,4.666 L8.166,4.666 L8.16666667,5.83333333 C8.16666667,6.43471006 7.71165532,6.92981319 7.12712119,6.99315416 L7,7 C6.35566779,7 5.83333333,6.47766554 5.83333333,5.83333333 L5.83333333,5.83333333 L5.833,4.666 Z" id="path-1"></path>
    </defs>
    <g id="Inrees.tv" stroke="none" stroke-width="1" fill="none" fill-rule="evenodd">
        <g id="05_nouveautés" transform="translate(-33.000000, -515.000000)">
            <g id="Icons/align_center-Copy-3" transform="translate(33.333333, 515.166667)">
                <mask id="mask-2" fill="white">
                    <use xlink:href="#path-1"></use>
                </mask>
                <use id="Combined-Shape" fill="currentColor" xlink:href="#path-1"></use>
            </g>
        </g>
    </g>
</svg>