<?xml version="1.0" encoding="UTF-8"?>
<svg width="385px" height="40px" viewBox="0 0 385 40" version="1.1" xmlns="http://www.w3.org/2000/svg" xmlns:xlink="http://www.w3.org/1999/xlink">
    <title>catalogue-basline-logo</title>
    <defs>
        <linearGradient x1="0%" y1="50%" x2="100%" y2="50%" id="linearGradient-1">
            <stop stop-color="#21639E" offset="0%"></stop>
            <stop stop-color="#36A9E1" offset="49.6104634%"></stop>
            <stop stop-color="#6C3490" offset="100%"></stop>
        </linearGradient>
        <linearGradient x1="14.3908561%" y1="88.9753657%" x2="69.5428029%" y2="28.6086967%" id="linearGradient-2">
            <stop stop-color="#74C4EF" offset="0%"></stop>
            <stop stop-color="#6FC2ED" offset="10%"></stop>
            <stop stop-color="#61BCEA" offset="21%"></stop>
            <stop stop-color="#4BB2E5" offset="32%"></stop>
            <stop stop-color="#38AAE1" offset="40%"></stop>
            <stop stop-color="#3195CD" offset="48%"></stop>
            <stop stop-color="#20619C" offset="64%"></stop>
            <stop stop-color="#20619C" offset="64%"></stop>
            <stop stop-color="#454A96" offset="79%"></stop>
            <stop stop-color="#613A91" offset="92%"></stop>
            <stop stop-color="#6C3490" offset="100%"></stop>
        </linearGradient>
        <linearGradient x1="83.4524322%" y1="1.3142184%" x2="19.1777873%" y2="94.8670374%" id="linearGradient-3">
            <stop stop-color="#74C4EF" offset="0%"></stop>
            <stop stop-color="#6FC2ED" offset="10%"></stop>
            <stop stop-color="#61BCEA" offset="21%"></stop>
            <stop stop-color="#4BB2E5" offset="32%"></stop>
            <stop stop-color="#38AAE1" offset="40%"></stop>
            <stop stop-color="#3195CD" offset="48%"></stop>
            <stop stop-color="#20619C" offset="64%"></stop>
            <stop stop-color="#20619C" offset="64%"></stop>
            <stop stop-color="#454A96" offset="79%"></stop>
            <stop stop-color="#613A91" offset="92%"></stop>
            <stop stop-color="#6C3490" offset="100%"></stop>
        </linearGradient>
        <linearGradient x1="18.8198419%" y1="12.2301885%" x2="87.3807577%" y2="95.2763923%" id="linearGradient-4">
            <stop stop-color="#74C4EF" offset="0%"></stop>
            <stop stop-color="#6FC2ED" offset="10%"></stop>
            <stop stop-color="#61BCEA" offset="21%"></stop>
            <stop stop-color="#4BB2E5" offset="32%"></stop>
            <stop stop-color="#38AAE1" offset="40%"></stop>
            <stop stop-color="#3195CD" offset="48%"></stop>
            <stop stop-color="#20619C" offset="64%"></stop>
            <stop stop-color="#20619C" offset="64%"></stop>
            <stop stop-color="#454A96" offset="79%"></stop>
            <stop stop-color="#613A91" offset="92%"></stop>
            <stop stop-color="#6C3490" offset="100%"></stop>
        </linearGradient>
    </defs>
    <g id="Page-1" stroke="none" stroke-width="1" fill="none" fill-rule="evenodd">
        <g id="catalogue-basline-logo" fill-rule="nonzero">
            <g id="Group-18" transform="translate(55.179980, 6.920000)" fill="url(#linearGradient-1)">
                <path d="M252.358413,7.20212766 C253.460351,7.20212766 254.490055,7.35258359 255.444452,7.6550152 C256.397313,7.95896657 257.22415,8.41033435 257.923427,9.01367781 C258.622704,9.61702128 259.163683,10.381459 259.547901,11.3054711 C259.932119,12.2294833 260.124228,13.2857143 260.124228,14.4741641 C260.124228,15.662614 259.922897,16.6352584 259.5187,17.5699088 C259.114503,18.5045593 258.559692,19.2978723 257.849657,19.949848 C257.141159,20.6018237 256.318933,21.0987842 255.384514,21.4392097 C254.450096,21.7796353 253.469572,21.949848 252.446015,21.949848 C251.540797,21.949848 250.743161,21.8617021 250.054642,21.6869301 L250.054642,26.825228 C249.326165,26.9422492 248.588466,27 247.84001,27 C247.131512,27 246.403034,26.9422492 245.654578,26.825228 L245.654578,9.3343465 C246.461435,8.7112462 247.440423,8.2006079 248.593077,7.80091185 C249.744194,7.40121581 250.999818,7.20212766 252.358413,7.20212766 Z M138.02002,12.26 C138.873359,12.26 139.686699,12.39 140.460039,12.65 C141.233379,12.91 141.880039,13.24 142.400039,13.64 L142.400039,21.5 C142.400039,22.06 142.316699,22.62 142.150039,23.18 C141.983379,23.74 141.700039,24.2366602 141.300039,24.67 C140.900039,25.1033398 140.376699,25.4533398 139.730039,25.72 C139.083379,25.9866602 138.313379,26.12 137.420039,26.12 C136.633379,26.12 135.906719,26.02 135.240059,25.82 C134.573398,25.62 134.043398,25.3833398 133.650059,25.11 C133.256719,24.8366602 132.953379,24.58 132.740039,24.34 C132.806699,23.9533398 132.983359,23.58 133.27002,23.22 C133.55668,22.86 133.92002,22.6066602 134.36002,22.46 C135.12002,23.3266602 136.08668,23.76 137.26002,23.76 C137.62002,23.76 137.973359,23.7066602 138.32002,23.6 C138.66668,23.4933398 138.93668,23.3033398 139.13002,23.03 C139.323359,22.7566602 139.42002,22.4266602 139.42002,22.04 L139.42002,21.7 C138.94002,21.8466602 138.40002,21.92 137.80002,21.92 C137.10668,21.92 136.45002,21.82 135.83002,21.62 C135.21002,21.42 134.66668,21.1233398 134.20002,20.73 C133.733359,20.3366602 133.366699,19.8466602 133.100039,19.26 C132.833379,18.6733398 132.700039,18.0133398 132.700039,17.28 C132.700039,16.5066602 132.840039,15.8066602 133.120039,15.18 C133.400039,14.5533398 133.783379,14.0233398 134.270039,13.59 C134.756699,13.1566602 135.323359,12.8266602 135.97002,12.6 C136.61668,12.3733398 137.30002,12.26 138.02002,12.26 Z M9.56001953,9.14 C10.0400195,9.14 10.5400195,9.18 11.0600195,9.26 L11.0600195,16.86 C11.0600195,17.7266602 10.9266797,18.51 10.6600195,19.21 C10.3933594,19.91 10.0133594,20.5 9.52001953,20.98 C9.02667969,21.46 8.44001953,21.8233398 7.76001953,22.07 C7.08001953,22.3166602 6.34667969,22.44 5.56001953,22.44 C4.73335937,22.44 3.97333984,22.3233398 3.28,22.09 C2.58666016,21.8566602 1.99666016,21.5066602 1.51,21.04 C1.02333984,20.5733398 0.65,19.9933398 0.39,19.3 C0.13,18.6066602 0,17.82 0,16.94 L0,9.26 C0.48,9.18 0.973339844,9.14 1.48,9.14 C1.97333984,9.14 2.48,9.18 3,9.26 L3,16.9 C3,17.7666602 3.22666016,18.4433203 3.68,18.9299805 C4.13333984,19.4166406 4.76667969,19.6599805 5.58001953,19.6599805 C6.38001953,19.6599805 7.00667969,19.4166406 7.46001953,18.9299805 C7.91335937,18.4433203 8.14001953,17.7666602 8.14001953,16.9 L8.14001953,9.26 C8.60667969,9.18 9.08001953,9.14 9.56001953,9.14 Z M28.0600195,12.32 C28.7133594,12.32 29.3200195,12.4233398 29.8800195,12.63 C30.4400195,12.8366602 30.9200195,13.13 31.3200195,13.51 C31.7200195,13.89 32.0266797,14.3533398 32.2400195,14.9 C32.4533594,15.4466602 32.5600195,16.04 32.5600195,16.68 C32.5600195,17.2133398 32.5266406,17.6799609 32.4599805,18.0799609 L26.1399805,18.0799609 C26.3133203,19.3733008 27.0933203,20.0199609 28.4799805,20.0199609 C28.8933203,20.0199609 29.3166602,19.9533008 29.75,19.8199609 C30.1833398,19.6866211 30.6933398,19.4332812 31.28,19.0599414 C31.5733398,19.2866016 31.8166797,19.5866016 32.0100195,19.9599414 C32.2033594,20.3332812 32.3200195,20.7066211 32.3600195,21.0799609 C31.1866797,21.9733008 29.7866797,22.4199609 28.1600195,22.4199609 C27.4400195,22.4199609 26.7666797,22.3066211 26.1400195,22.0799609 C25.5133594,21.8533008 24.9733594,21.5266406 24.5200195,21.0999805 C24.0666797,20.6733203 23.7166797,20.1466602 23.4700195,19.52 C23.2233594,18.8933398 23.1000195,18.1933398 23.1000195,17.42 C23.1000195,16.7 23.2233594,16.0233398 23.4700195,15.39 C23.7166797,14.7566602 24.0666797,14.21 24.5200195,13.75 C24.9733594,13.29 25.5033594,12.9366602 26.1100195,12.69 C26.7166797,12.4433398 27.3666797,12.32 28.0600195,12.32 Z M178.84002,12.32 C179.493359,12.32 180.10002,12.4233398 180.66002,12.63 C181.22002,12.8366602 181.70002,13.13 182.10002,13.51 C182.50002,13.89 182.80668,14.3533398 183.02002,14.9 C183.233359,15.4466602 183.34002,16.04 183.34002,16.68 C183.34002,17.2133398 183.306641,17.6799609 183.23998,18.0799609 L176.91998,18.0799609 C177.09332,19.3733008 177.87332,20.0199609 179.25998,20.0199609 C179.67332,20.0199609 180.09666,19.9533008 180.53,19.8199609 C180.96334,19.6866211 181.47334,19.4332812 182.06,19.0599414 C182.35334,19.2866016 182.59668,19.5866016 182.79002,19.9599414 C182.983359,20.3332812 183.10002,20.7066211 183.14002,21.0799609 C181.96668,21.9733008 180.56668,22.4199609 178.94002,22.4199609 C178.22002,22.4199609 177.54668,22.3066211 176.92002,22.0799609 C176.293359,21.8533008 175.753359,21.5266406 175.30002,21.0999805 C174.84668,20.6733203 174.49668,20.1466602 174.25002,19.52 C174.003359,18.8933398 173.88002,18.1933398 173.88002,17.42 C173.88002,16.7 174.003359,16.0233398 174.25002,15.39 C174.49668,14.7566602 174.84668,14.21 175.30002,13.75 C175.753359,13.29 176.283359,12.9366602 176.89002,12.69 C177.49668,12.4433398 178.14668,12.32 178.84002,12.32 Z M41.5600391,12.2599805 C42.2266992,12.2599805 42.8666992,12.3666406 43.4800391,12.5799805 C44.0933789,12.7933203 44.5533789,13.0399805 44.8600391,13.3199805 C44.7666992,13.7066406 44.5766992,14.0966406 44.2900391,14.4899805 C44.0033789,14.8833203 43.6800391,15.1933203 43.3200391,15.4199805 C42.8266992,14.9799805 42.2666992,14.7599805 41.6400391,14.7599805 C40.9466992,14.7599805 40.4033594,14.9999805 40.0100195,15.4799805 C39.6166797,15.9599805 39.4200195,16.5733203 39.4200195,17.3199805 C39.4200195,18.0666406 39.6133594,18.6866406 40.0000195,19.1799805 C40.3866797,19.6733203 40.9400195,19.9199805 41.6600195,19.9199805 C41.9800195,19.9199805 42.2900195,19.8733203 42.5900195,19.7799805 C42.8900195,19.6866406 43.1933594,19.4999805 43.5000195,19.2199805 C44.2600195,19.5933203 44.7666797,20.2466602 45.0200195,21.18 C44.6333594,21.5266602 44.1500195,21.82 43.5700195,22.06 C42.9900195,22.3 42.3466797,22.42 41.6400195,22.42 C40.0266797,22.42 38.7533789,21.9733203 37.8200391,21.0799805 C36.8866992,20.1866406 36.4200391,18.9466406 36.4200391,17.3599805 C36.4200391,16.5999805 36.5500391,15.9033203 36.8100391,15.2699805 C37.0700391,14.6366406 37.4300391,14.0966406 37.8900391,13.6499805 C38.3500391,13.2033203 38.8966992,12.8599805 39.5300391,12.6199805 C40.1633789,12.3799805 40.8400391,12.2599805 41.5600391,12.2599805 Z M57.0400195,12.32 C57.6933594,12.32 58.3000195,12.4233398 58.8600195,12.63 C59.4200195,12.8366602 59.9000195,13.13 60.3000195,13.51 C60.7000195,13.89 61.0066797,14.3533398 61.2200195,14.9 C61.4333594,15.4466602 61.5400195,16.04 61.5400195,16.68 C61.5400195,17.2133398 61.5066406,17.6799609 61.4399805,18.0799609 L55.1199805,18.0799609 C55.2933203,19.3733008 56.0733203,20.0199609 57.4599805,20.0199609 C57.8733203,20.0199609 58.2966602,19.9533008 58.73,19.8199609 C59.1633398,19.6866211 59.6733398,19.4332812 60.26,19.0599414 C60.5533398,19.2866016 60.7966797,19.5866016 60.9900195,19.9599414 C61.1833594,20.3332812 61.3000195,20.7066211 61.3400195,21.0799609 C60.1666797,21.9733008 58.7666797,22.4199609 57.1400195,22.4199609 C56.4200195,22.4199609 55.7466797,22.3066211 55.1200195,22.0799609 C54.4933594,21.8533008 53.9533594,21.5266406 53.5000195,21.0999805 C53.0466797,20.6733203 52.6966797,20.1466602 52.4500195,19.52 C52.2033594,18.8933398 52.0800195,18.1933398 52.0800195,17.42 C52.0800195,16.7 52.2033594,16.0233398 52.4500195,15.39 C52.6966797,14.7566602 53.0466797,14.21 53.5000195,13.75 C53.9533594,13.29 54.4833594,12.9366602 55.0900195,12.69 C55.6966797,12.4433398 56.3466797,12.32 57.0400195,12.32 Z M163.64002,12.32 C164.70668,12.32 165.57998,12.4899414 166.25998,12.8299414 C166.93998,13.1699414 167.44998,13.6399414 167.78998,14.2399414 C168.12998,14.8399414 168.29998,15.5866016 168.29998,16.4799414 L168.29998,21.4599414 C166.766641,22.0866016 165.166641,22.3999414 163.49998,22.3999414 C162.126641,22.3999414 161.066641,22.1366016 160.31998,21.6099414 C159.57332,21.0832812 159.19998,20.3066211 159.19998,19.2799609 C159.19998,18.9199609 159.266641,18.5599609 159.39998,18.1999609 C159.53332,17.8399609 159.76666,17.5166211 160.1,17.2299609 C160.43334,16.9433008 160.86668,16.7133008 161.40002,16.5399609 C161.933359,16.3666211 162.58002,16.2799609 163.34002,16.2799609 C164.14002,16.3066211 164.80668,16.3999609 165.34002,16.5599609 L165.34002,16.1799609 C165.34002,15.7533008 165.18002,15.4133008 164.86002,15.1599609 C164.54002,14.9066211 164.04668,14.7799609 163.38002,14.7799609 C162.873359,14.7799609 162.386699,14.8633008 161.920039,15.0299609 C161.453379,15.1966211 161.080039,15.3866211 160.800039,15.5999609 C160.480039,15.4133008 160.203379,15.1566406 159.970039,14.8299805 C159.736699,14.5033203 159.586699,14.1266602 159.520039,13.7 C159.760039,13.4866602 160.116699,13.26 160.590039,13.02 C161.063379,12.78 161.573379,12.6033398 162.120039,12.49 C162.666699,12.3766602 163.173359,12.32 163.64002,12.32 Z M115.16,12.2599805 C115.89334,12.2599805 116.58,12.3799805 117.22,12.6199805 C117.86,12.8599805 118.41334,13.2033203 118.88,13.6499805 C119.34666,14.0966406 119.70666,14.6366406 119.96,15.2699805 C120.21334,15.9033203 120.34,16.5933203 120.34,17.3399805 C120.34,18.0733203 120.21,18.7566602 119.95,19.39 C119.69,20.0233398 119.32666,20.5633398 118.86,21.01 C118.39334,21.4566602 117.83668,21.8 117.19002,22.04 C116.543359,22.28 115.853359,22.4 115.12002,22.4 C114.373359,22.4 113.683359,22.2833008 113.05002,22.0499609 C112.41668,21.8166211 111.86668,21.4799609 111.40002,21.0399609 C110.933359,20.5999609 110.573359,20.0633008 110.32002,19.4299609 C110.06668,18.7966211 109.94002,18.0999609 109.94002,17.3399609 C109.94002,16.5933008 110.07002,15.9066406 110.33002,15.2799805 C110.59002,14.6533203 110.953359,14.1133203 111.42002,13.6599805 C111.88668,13.2066406 112.44334,12.8599805 113.09,12.6199805 C113.73666,12.3799805 114.42666,12.2599805 115.16,12.2599805 Z M90,12.2599805 C90.7333398,12.2599805 91.42,12.3799805 92.06,12.6199805 C92.7,12.8599805 93.2533398,13.2033203 93.72,13.6499805 C94.1866602,14.0966406 94.5466602,14.6366406 94.8,15.2699805 C95.0533398,15.9033203 95.18,16.5933203 95.18,17.3399805 C95.18,18.0733203 95.05,18.7566602 94.79,19.39 C94.53,20.0233398 94.1666602,20.5633398 93.7,21.01 C93.2333398,21.4566602 92.6766797,21.8 92.0300195,22.04 C91.3833594,22.28 90.6933594,22.4 89.9600195,22.4 C89.2133594,22.4 88.5233594,22.2833008 87.8900195,22.0499609 C87.2566797,21.8166211 86.7066797,21.4799609 86.2400195,21.0399609 C85.7733594,20.5999609 85.4133594,20.0633008 85.1600195,19.4299609 C84.9066797,18.7966211 84.7800195,18.0999609 84.7800195,17.3399609 C84.7800195,16.5933008 84.9100195,15.9066406 85.1700195,15.2799805 C85.4300195,14.6533203 85.7933594,14.1133203 86.2600195,13.6599805 C86.7266797,13.2066406 87.2833398,12.8599805 87.93,12.6199805 C88.5766602,12.3799805 89.2666602,12.2599805 90,12.2599805 Z M66.7000195,12.32 C67.7666797,12.32 68.6399805,12.4899414 69.3199805,12.8299414 C69.9999805,13.1699414 70.5099805,13.6399414 70.8499805,14.2399414 C71.1899805,14.8399414 71.3599805,15.5866016 71.3599805,16.4799414 L71.3599805,21.4599414 C69.8266406,22.0866016 68.2266406,22.3999414 66.5599805,22.3999414 C65.1866406,22.3999414 64.1266406,22.1366016 63.3799805,21.6099414 C62.6333203,21.0832812 62.2599805,20.3066211 62.2599805,19.2799609 C62.2599805,18.9199609 62.3266406,18.5599609 62.4599805,18.1999609 C62.5933203,17.8399609 62.8266602,17.5166211 63.16,17.2299609 C63.4933398,16.9433008 63.9266797,16.7133008 64.4600195,16.5399609 C64.9933594,16.3666211 65.6400195,16.2799609 66.4000195,16.2799609 C67.2000195,16.3066211 67.8666797,16.3999609 68.4000195,16.5599609 L68.4000195,16.1799609 C68.4000195,15.7533008 68.2400195,15.4133008 67.9200195,15.1599609 C67.6000195,14.9066211 67.1066797,14.7799609 66.4400195,14.7799609 C65.9333594,14.7799609 65.4466992,14.8633008 64.9800391,15.0299609 C64.5133789,15.1966211 64.1400391,15.3866211 63.8600391,15.5999609 C63.5400391,15.4133008 63.2633789,15.1566406 63.0300391,14.8299805 C62.7966992,14.5033203 62.6466992,14.1266602 62.5800391,13.7 C62.8200391,13.4866602 63.1766992,13.26 63.6500391,13.02 C64.1233789,12.78 64.6333789,12.6033398 65.1800391,12.49 C65.7266992,12.3766602 66.2333594,12.32 66.7000195,12.32 Z M74.6,10.1200195 C75.1066602,10.1200195 75.5866602,10.1600195 76.04,10.2400195 L76.04,12.7400195 L79.36,12.7400195 C79.4533398,13.1800195 79.5,13.5733594 79.5,13.9200195 C79.5,14.2666797 79.4533398,14.6866797 79.36,15.1800195 L76.04,15.1800195 L76.04,18.4000195 C76.04,18.9066797 76.1566602,19.2733398 76.39,19.5 C76.6233398,19.7266602 76.9666797,19.84 77.4200195,19.84 C77.8733594,19.84 78.3133594,19.6533398 78.7400195,19.28 C79.0333594,19.4533398 79.3,19.7400391 79.54,20.1400391 C79.78,20.5400391 79.9266602,20.9333789 79.98,21.3200391 C79.0866602,22.0266992 78.06,22.3800391 76.9,22.3800391 C76.0466602,22.3800391 75.34,22.2500391 74.78,21.9900391 C74.22,21.7300391 73.7966602,21.3633789 73.51,20.8900391 C73.2233398,20.4166992 73.08,19.8333594 73.08,19.1400195 L73.08,15.1800195 L71.46,15.1800195 C71.3933398,14.7533594 71.36,14.3400195 71.36,13.9400195 C71.36,13.5800195 71.3933398,13.1800195 71.46,12.7400195 L73.08,12.7400195 L73.08,10.2400195 C73.6,10.1600195 74.1066602,10.1200195 74.6,10.1200195 Z M82.2200195,12.46 C82.7000195,12.46 83.2000195,12.5 83.7200195,12.58 L83.7200195,22.08 C83.2400195,22.16 82.7400195,22.2 82.2200195,22.2 C81.7400195,22.2 81.2466797,22.16 80.7400195,22.08 L80.7400195,12.58 C81.2200195,12.5 81.7133594,12.46 82.2200195,12.46 Z M125.74002,12.28 C126.62002,12.28 127.353359,12.3733398 127.94002,12.56 C127.913359,13.6 127.633359,14.46 127.10002,15.14 C126.76668,15.0466602 126.38668,15 125.96002,15 C125.36002,15 124.873359,15.0933398 124.50002,15.28 L124.50002,22.08 C124.02002,22.16 123.52002,22.2 123.00002,22.2 C122.52002,22.2 122.02668,22.16 121.52002,22.08 L121.52002,13.74 C121.80002,13.4866602 122.18002,13.2366602 122.66002,12.99 C123.14002,12.7433398 123.65668,12.5633398 124.21002,12.45 C124.763359,12.3366602 125.273359,12.28 125.74002,12.28 Z M17.5600195,12.26 C18.3200195,12.26 18.9933594,12.36 19.5800195,12.56 C20.1666797,12.76 20.6466797,13.04 21.0200195,13.4 C21.3933594,13.76 21.6733594,14.19 21.8600195,14.69 C22.0466797,15.19 22.1400195,15.7333398 22.1400195,16.32 L22.1400195,22.08 C21.6466797,22.16 21.1466797,22.2 20.6400195,22.2 C20.1466797,22.2 19.6466797,22.16 19.1400195,22.08 L19.1400195,16.8 C19.1400195,16.4933398 19.0866797,16.19 18.9800195,15.89 C18.8733594,15.59 18.6733594,15.36 18.3800195,15.2 C18.0866797,15.04 17.7400195,14.96 17.3400195,14.96 C17.2066797,14.96 16.9833398,14.9833398 16.67,15.03 C16.3566602,15.0766602 16.0466602,15.1866602 15.74,15.36 L15.74,22.08 C15.2466602,22.16 14.7466602,22.2 14.24,22.2 C13.76,22.2 13.2666602,22.16 12.76,22.08 L12.76,13.84 C13.0666602,13.56 13.4966602,13.2866602 14.05,13.02 C14.6033398,12.7533398 15.1966797,12.56 15.8300195,12.44 C16.4633594,12.32 17.0400195,12.26 17.5600195,12.26 Z M145.58002,12.46 C146.06002,12.46 146.56002,12.5 147.08002,12.58 L147.08002,22.08 C146.60002,22.16 146.10002,22.2 145.58002,22.2 C145.10002,22.2 144.60668,22.16 144.10002,22.08 L144.10002,12.58 C144.58002,12.5 145.073359,12.46 145.58002,12.46 Z M50.1600195,12.28 C51.0400195,12.28 51.7733594,12.3733398 52.3600195,12.56 C52.3333594,13.6 52.0533594,14.46 51.5200195,15.14 C51.1866797,15.0466602 50.8066797,15 50.3800195,15 C49.7800195,15 49.2933594,15.0933398 48.9200195,15.28 L48.9200195,22.08 C48.4400195,22.16 47.9400195,22.2 47.4200195,22.2 C46.9400195,22.2 46.4466797,22.16 45.9400195,22.08 L45.9400195,13.74 C46.2200195,13.4866602 46.6000195,13.2366602 47.0800195,12.99 C47.5600195,12.7433398 48.0766797,12.5633398 48.6300195,12.45 C49.1833594,12.3366602 49.6933594,12.28 50.1600195,12.28 Z M171.260039,8.86 C171.766699,8.86 172.280039,8.9 172.800039,8.98 L172.800039,22.08 C172.346699,22.16 171.853359,22.2 171.32002,22.2 C170.82668,22.2 170.320059,22.16 169.800059,22.08 L169.800059,8.98 C170.266719,8.9 170.753379,8.86 171.260039,8.86 Z M130.18002,12.46 C130.66002,12.46 131.16002,12.5 131.68002,12.58 L131.68002,22.08 C131.20002,22.16 130.70002,22.2 130.18002,22.2 C129.70002,22.2 129.20668,22.16 128.70002,22.08 L128.70002,12.58 C129.18002,12.5 129.673359,12.46 130.18002,12.46 Z M153.56002,12.26 C154.32002,12.26 154.993359,12.36 155.58002,12.56 C156.16668,12.76 156.64668,13.04 157.02002,13.4 C157.393359,13.76 157.673359,14.19 157.86002,14.69 C158.04668,15.19 158.14002,15.7333398 158.14002,16.32 L158.14002,22.08 C157.64668,22.16 157.14668,22.2 156.64002,22.2 C156.14668,22.2 155.64668,22.16 155.14002,22.08 L155.14002,16.8 C155.14002,16.4933398 155.08668,16.19 154.98002,15.89 C154.873359,15.59 154.673359,15.36 154.38002,15.2 C154.08668,15.04 153.74002,14.96 153.34002,14.96 C153.20668,14.96 152.98334,14.9833398 152.67,15.03 C152.35666,15.0766602 152.04666,15.1866602 151.74,15.36 L151.74,22.08 C151.24666,22.16 150.74666,22.2 150.24,22.2 C149.76,22.2 149.26666,22.16 148.76,22.08 L148.76,13.84 C149.06666,13.56 149.49666,13.2866602 150.05,13.02 C150.60334,12.7533398 151.19668,12.56 151.83002,12.44 C152.463359,12.32 153.04002,12.26 153.56002,12.26 Z M101.16002,12.26 C101.92002,12.26 102.593359,12.36 103.18002,12.56 C103.76668,12.76 104.24668,13.04 104.62002,13.4 C104.993359,13.76 105.273359,14.19 105.46002,14.69 C105.64668,15.19 105.74002,15.7333398 105.74002,16.32 L105.74002,22.08 C105.24668,22.16 104.74668,22.2 104.24002,22.2 C103.74668,22.2 103.24668,22.16 102.74002,22.08 L102.74002,16.8 C102.74002,16.4933398 102.68668,16.19 102.58002,15.89 C102.473359,15.59 102.273359,15.36 101.98002,15.2 C101.68668,15.04 101.34002,14.96 100.94002,14.96 C100.80668,14.96 100.58334,14.9833398 100.27,15.03 C99.9566602,15.0766602 99.6466602,15.1866602 99.34,15.36 L99.34,22.08 C98.8466602,22.16 98.3466602,22.2 97.84,22.2 C97.36,22.2 96.8666602,22.16 96.36,22.08 L96.36,13.84 C96.6666602,13.56 97.0966602,13.2866602 97.65,13.02 C98.2033398,12.7533398 98.7966797,12.56 99.4300195,12.44 C100.063359,12.32 100.64002,12.26 101.16002,12.26 Z M320.933775,12.0892375 C321.17232,11.97563 321.487262,11.9771248 321.680592,12.0563511 L321.747634,12.0832582 L321.766344,12.1505258 C322.665954,15.4585978 323.843087,18.4378059 325.26656,21.0104186 C326.841268,17.9415203 327.9841,14.9638071 328.666993,12.1535155 L328.688821,12.0623305 L329.048977,12.0010422 C329.217361,11.9980525 329.3608,12.0279492 329.48397,12.0877427 L329.58999,12.1430516 L329.561926,12.2521746 C328.752745,15.466072 327.452442,18.7053815 325.698435,21.8804131 L325.67349,21.9252582 L325.625157,21.9446911 C325.533169,21.982062 325.413117,22 325.255646,22 C325.115326,22 324.989037,21.982062 324.881458,21.9476807 L324.828448,21.9297427 L324.611904,21.5571712 C324.230925,20.8900385 323.826382,20.117788 323.408093,19.2554812 C322.92009,18.2509514 322.458591,17.1417831 322.03763,15.9608627 C321.616668,14.7844268 321.220653,13.5362387 320.857379,12.2536695 L320.826196,12.1415568 L320.933775,12.0892375 Z M319.620999,12.057846 L319.6553,12.1550103 C319.69116,12.258154 319.709869,12.358308 319.709869,12.4539775 C319.709869,12.549647 319.69116,12.649801 319.6553,12.7529447 L319.620999,12.850109 L316.077128,12.850109 L316.077128,21.8983512 L315.977344,21.9312375 C315.869765,21.9656188 315.75439,21.9835568 315.634338,21.9835568 C315.5252,21.9835568 315.414503,21.9656188 315.306924,21.9312375 L315.207141,21.8983512 L315.207141,12.850109 L311.67886,12.850109 L311.644559,12.7529447 C311.6087,12.6483062 311.58999,12.5481522 311.58999,12.4539775 C311.58999,12.3598028 311.6087,12.2596488 311.644559,12.1550103 L311.67886,12.057846 L319.620999,12.057846 Z M302.947629,7.20820669 C303.912785,7.20820669 304.807245,7.35866261 305.634082,7.66109422 C306.460919,7.96352584 307.169417,8.39057751 307.759576,8.94528875 C308.349735,9.5 308.803112,10.1762918 309.118171,10.9741641 C309.433229,11.7720365 309.58999,12.6382979 309.58999,13.5729483 C309.58999,14.2213779 309.555838,14.8033181 309.487532,15.31701 L309.443,15.613 L300.113637,15.6139818 C300.368758,17.5015198 301.521412,18.4468085 303.568526,18.4468085 C304.178664,18.4468085 304.804171,18.3495441 305.44351,18.1550152 C306.082848,17.9604863 306.835916,17.5911854 307.702711,17.0455927 C308.136109,17.3768997 308.495737,17.8145897 308.780059,18.3601824 C309.065917,18.9057751 309.238047,19.449848 309.296448,19.9954407 C307.564393,21.2993921 305.4973,21.9513678 303.095169,21.9513678 C302.031654,21.9513678 301.038834,21.7857143 300.113637,21.4544073 C299.18844,21.1231003 298.390804,20.6458967 297.722265,20.0243161 C297.052188,19.4012158 296.535799,18.6322188 296.171561,17.7173252 C295.807322,16.8024316 295.625971,15.781155 295.625971,14.6519757 C295.625971,13.600304 295.808859,12.612462 296.171561,11.6884498 C296.535799,10.7644377 297.052188,9.96504559 297.722265,9.29483283 C298.390804,8.6231003 299.174609,8.10790274 300.069068,7.74772036 C300.965064,7.38753799 301.924073,7.20820669 302.947629,7.20820669 Z M221.630194,7.20820669 C222.59535,7.20820669 223.489809,7.35866261 224.316647,7.66109422 C225.143484,7.96352584 225.851982,8.39057751 226.442141,8.94528875 C227.032299,9.5 227.485677,10.1762918 227.800735,10.9741641 C228.115794,11.7720365 228.272555,12.6382979 228.272555,13.5729483 C228.272555,14.2213779 228.238402,14.8033181 228.170097,15.31701 L228.126,15.613 L218.796202,15.6139818 C219.051323,17.5015198 220.203977,18.4468085 222.251091,18.4468085 C222.861229,18.4468085 223.486736,18.3495441 224.126074,18.1550152 C224.765413,17.9604863 225.51848,17.5911854 226.385276,17.0455927 C226.818674,17.3768997 227.178302,17.8145897 227.462624,18.3601824 C227.748482,18.9057751 227.920611,19.449848 227.979013,19.9954407 C226.246958,21.2993921 224.179865,21.9513678 221.777734,21.9513678 C220.714219,21.9513678 219.721399,21.7857143 218.796202,21.4544073 C217.871005,21.1231003 217.073369,20.6458967 216.404829,20.0243161 C215.734753,19.4012158 215.218364,18.6322188 214.854126,17.7173252 C214.489887,16.8024316 214.308536,15.781155 214.308536,14.6519757 C214.308536,13.600304 214.491424,12.612462 214.854126,11.6884498 C215.218364,10.7644377 215.734753,9.96504559 216.404829,9.29483283 C217.073369,8.6231003 217.857173,8.10790274 218.751633,7.74772036 C219.647629,7.38753799 220.606638,7.20820669 221.630194,7.20820669 Z M276.236794,7.11550152 C277.320289,7.11550152 278.333087,7.29027356 279.278264,7.64133739 C280.22344,7.99240122 281.039519,8.49240122 281.729574,9.1443769 C282.418093,9.79635258 282.949851,10.5851064 283.324848,11.5091185 C283.698307,12.4331307 283.885806,13.4407295 283.885806,14.5319149 C283.885806,15.6231003 283.693697,16.600304 283.309479,17.5243161 C282.925261,18.4483283 282.388892,19.2370821 281.700374,19.8890578 C281.011855,20.5410334 280.189629,21.0425532 279.235231,21.3920973 C278.280834,21.7431611 277.261887,21.9179331 276.178393,21.9179331 C275.094898,21.9179331 274.057509,21.7477204 273.121554,21.4072948 C272.187136,21.0683891 271.374131,20.5759878 270.685612,19.9346505 C269.997093,19.2917933 269.465336,18.5091185 269.090339,17.5835866 C268.716879,16.6595745 268.529381,15.6413374 268.529381,14.5319149 C268.529381,13.4224924 268.72149,12.4392097 269.105708,11.5243161 C269.489926,10.6094225 270.026294,9.82066869 270.714813,9.15957447 C271.403331,8.49696049 272.225558,7.99088146 273.179955,7.64133739 C274.134353,7.29027356 275.153299,7.11550152 276.236794,7.11550152 Z M266.468435,3.05927052 L266.468435,21.4544073 C265.798359,21.5714286 265.069882,21.6291793 264.283003,21.6291793 C263.554526,21.6291793 262.807606,21.5714286 262.03917,21.4544073 L262.03917,3.81306991 C263.552989,3.67629179 265.032997,3.4224924 266.468435,3.05927052 Z M240.881053,7.49544073 C241.314451,7.49544073 241.864651,7.52887538 242.534727,7.59726444 C243.204804,7.6656535 243.696603,7.75835866 244.011661,7.87386018 L239.228916,14.5607903 L244.366679,21.393617 C244.268319,21.4528875 243.933281,21.5075988 243.363101,21.556231 C242.792922,21.6048632 242.201226,21.6291793 241.591088,21.6291793 C240.68587,21.6291793 239.957393,21.5896657 239.405656,21.5121581 L236.453325,17.2492401 L233.736135,21.5121581 C233.067596,21.5896657 232.37754,21.6291793 231.669042,21.6291793 C230.468745,21.6291793 229.563528,21.5516717 228.953389,21.3951368 L233.883675,14.5334347 L229.040991,7.87537994 C229.277669,7.7781155 229.73412,7.6899696 230.413418,7.61246201 C231.092715,7.53495441 231.767402,7.49544073 232.435941,7.49544073 C232.987678,7.49544073 233.470256,7.52431611 233.882138,7.58358663 L236.657729,11.8176292 L239.28578,7.58358663 C239.817538,7.52583587 240.349295,7.49544073 240.881053,7.49544073 Z M205.536071,7.11550152 C206.657987,7.11550152 207.652343,7.26139818 208.517602,7.55319149 C209.385935,7.84650456 210.094433,8.25531915 210.644633,8.78115502 C211.19637,9.30699088 211.609789,9.93465046 211.884889,10.6641337 C212.159989,11.393617 212.298307,12.1869301 212.298307,13.0440729 L212.298307,21.4528875 C211.56983,21.5699088 210.832132,21.6276596 210.083675,21.6276596 C209.335218,21.6276596 208.617499,21.5699088 207.869042,21.4528875 L207.869042,13.7446809 C207.869042,13.2963526 207.790662,12.8541033 207.632364,12.4164134 C207.474066,11.9787234 207.178987,11.6428571 206.747126,11.4088146 C206.313728,11.174772 205.801949,11.0577508 205.211791,11.0577508 C205.015071,11.0577508 204.684643,11.0911854 204.222045,11.1595745 C203.759447,11.2279635 203.301459,11.387538 202.849618,11.6413374 L202.849618,21.4528875 C202.121141,21.5699088 201.383442,21.6276596 200.634986,21.6276596 C199.926488,21.6276596 199.19801,21.5699088 198.449554,21.4528875 L198.449554,9.4224924 C198.902931,9.01367781 199.537659,8.61398176 200.353738,8.22492401 C201.171354,7.83586626 202.047371,7.55319149 202.981789,7.37841945 C203.916207,7.20364742 204.767635,7.11550152 205.536071,7.11550152 Z M193.909634,9.24772036 C194.618132,9.24772036 195.35583,9.30547112 196.124266,9.4224924 L196.124266,21.4528875 C195.415768,21.5699088 194.676533,21.6276596 193.909634,21.6276596 C193.201136,21.6276596 192.472658,21.5699088 191.724202,21.4528875 L191.724202,9.4224924 C192.4327,9.30547112 193.161177,9.24772036 193.909634,9.24772036 Z M292.200283,7.1443769 C293.49894,7.1443769 294.582435,7.28115502 295.447694,7.55319149 C295.407735,9.07294833 294.994317,10.3282675 294.207438,11.3206687 C293.715639,11.1838906 293.154681,11.1155015 292.524563,11.1155015 C291.639325,11.1155015 290.920069,11.2522796 290.369869,11.5243161 L290.369869,21.4513678 C289.661371,21.5683891 288.923672,21.6261398 288.155236,21.6261398 C287.446738,21.6261398 286.718261,21.5683891 285.969804,21.4513678 L285.969804,9.27507599 C286.383223,8.90577508 286.944181,8.53951368 287.652679,8.18085106 C288.361177,7.82066869 289.125003,7.55775076 289.941082,7.39209726 C290.758697,7.22644377 291.511765,7.1443769 292.200283,7.1443769 Z M163.69998,18.1399219 C163.21998,18.1399219 162.846641,18.226582 162.57998,18.3999219 C162.31332,18.5732617 162.17998,18.8266016 162.17998,19.1599414 C162.17998,19.5066016 162.329961,19.786582 162.629961,19.9999219 C162.929961,20.2132617 163.353301,20.3199219 163.899961,20.3199219 C164.353301,20.3199219 164.833301,20.246582 165.339961,20.0999219 L165.339961,18.3599219 C164.833301,18.2132617 164.286641,18.1399219 163.69998,18.1399219 Z M66.7599805,18.1399219 C66.2799805,18.1399219 65.9066406,18.226582 65.6399805,18.3999219 C65.3733203,18.5732617 65.2399805,18.8266016 65.2399805,19.1599414 C65.2399805,19.5066016 65.3899609,19.786582 65.6899609,19.9999219 C65.9899609,20.2132617 66.4133008,20.3199219 66.9599609,20.3199219 C67.4133008,20.3199219 67.8933008,20.246582 68.3999609,20.0999219 L68.3999609,18.3599219 C67.8933008,18.2132617 67.3466406,18.1399219 66.7599805,18.1399219 Z M115.14002,14.7599219 C114.46002,14.7599219 113.92002,14.996582 113.52002,15.4699219 C113.12002,15.9432617 112.92002,16.5666016 112.92002,17.3399414 C112.92002,18.1132812 113.12002,18.7366211 113.52002,19.2099609 C113.92002,19.6833008 114.46002,19.9199609 115.14002,19.9199609 C115.82002,19.9199609 116.35668,19.6833008 116.75002,19.2099609 C117.143359,18.7366211 117.34002,18.1132812 117.34002,17.3399414 C117.34002,16.5666016 117.143359,15.9432617 116.75002,15.4699219 C116.35668,14.996582 115.82002,14.7599219 115.14002,14.7599219 Z M89.9800195,14.7599219 C89.3000195,14.7599219 88.7600195,14.996582 88.3600195,15.4699219 C87.9600195,15.9432617 87.7600195,16.5666016 87.7600195,17.3399414 C87.7600195,18.1132812 87.9600195,18.7366211 88.3600195,19.2099609 C88.7600195,19.6833008 89.3000195,19.9199609 89.9800195,19.9199609 C90.6600195,19.9199609 91.1966797,19.6833008 91.5900195,19.2099609 C91.9833594,18.7366211 92.1800195,18.1132812 92.1800195,17.3399414 C92.1800195,16.5666016 91.9833594,15.9432617 91.5900195,15.4699219 C91.1966797,14.996582 90.6600195,14.7599219 89.9800195,14.7599219 Z M138.08002,14.7799805 C137.413359,14.7799805 136.85002,14.9966406 136.39002,15.4299805 C135.93002,15.8633203 135.70002,16.4399805 135.70002,17.1599805 C135.70002,17.4933203 135.773359,17.8466602 135.92002,18.22 C136.06668,18.5933398 136.33668,18.9033398 136.73002,19.15 C137.123359,19.3966602 137.573359,19.52 138.08002,19.52 C138.573359,19.52 139.02002,19.4399805 139.42002,19.2799805 L139.42002,15.0399805 C138.96668,14.8666406 138.52002,14.7799805 138.08002,14.7799805 Z M276.206056,10.7674772 C275.200942,10.7674772 274.404842,11.112462 273.814684,11.8039514 C273.224525,12.4954407 272.929445,13.4057751 272.929445,14.5334347 C272.929445,15.6610942 273.224525,16.5729483 273.814684,17.2629179 C274.404842,17.9544073 275.202479,18.2993921 276.206056,18.2993921 C277.209634,18.2993921 278.00266,17.9544073 278.583597,17.2629179 C279.164535,16.5714286 279.455004,15.6610942 279.455004,14.5334347 C279.455004,13.4057751 279.164535,12.493921 278.583597,11.8039514 C278.00266,11.112462 277.211171,10.7674772 276.206056,10.7674772 Z M252.034133,11.0577508 C251.345615,11.0577508 250.686297,11.1838906 250.056179,11.43769 L250.056179,17.8024316 C250.567957,18.0364742 251.247255,18.1534954 252.094071,18.1534954 C252.60585,18.1534954 253.142218,18.056231 253.703176,17.8617021 C254.262598,17.6671733 254.734417,17.2781155 255.118635,16.6930091 C255.502853,16.1094225 255.694962,15.4088146 255.694962,14.5911854 C255.694962,13.7735562 255.502853,13.106383 255.118635,12.5334347 C254.734417,11.9589666 254.25184,11.5699088 253.672439,11.3647416 C253.091501,11.1595745 252.545912,11.0577508 252.034133,11.0577508 Z M28.0799805,14.5799609 C27.5333203,14.5799609 27.0899805,14.7466211 26.7499805,15.0799609 C26.4099805,15.4133008 26.2066406,15.8533008 26.1399805,16.3999609 L29.7399609,16.3999609 C29.7399609,16.0399609 29.6666211,15.7133008 29.5199609,15.4199609 C29.3733008,15.1266211 29.1666406,14.9166211 28.8999805,14.7899609 C28.6333203,14.6633008 28.3599805,14.5933008 28.0799805,14.5799609 Z M178.85998,14.5799609 C178.31332,14.5799609 177.86998,14.7466211 177.52998,15.0799609 C177.18998,15.4133008 176.986641,15.8533008 176.91998,16.3999609 L180.519961,16.3999609 C180.519961,16.0399609 180.446621,15.7133008 180.299961,15.4199609 C180.153301,15.1266211 179.946641,14.9166211 179.67998,14.7899609 C179.41332,14.6633008 179.13998,14.5933008 178.85998,14.5799609 Z M57.0599805,14.5799609 C56.5133203,14.5799609 56.0699805,14.7466211 55.7299805,15.0799609 C55.3899805,15.4133008 55.1866406,15.8533008 55.1199805,16.3999609 L58.7199609,16.3999609 C58.7199609,16.0399609 58.6466211,15.7133008 58.4999609,15.4199609 C58.3533008,15.1266211 58.1466406,14.9166211 57.8799805,14.7899609 C57.6133203,14.6633008 57.3399805,14.5933008 57.0599805,14.5799609 Z M221.659395,10.5045593 C220.852537,10.5045593 220.19783,10.7477204 219.695272,11.2340426 C219.192715,11.7203647 218.893025,12.3632219 218.794665,13.1610942 L224.110706,13.1610942 C224.110706,12.6352584 224.001588,12.1580547 223.786426,11.731003 C223.569727,11.3024316 223.265426,10.9954407 222.87045,10.8115502 C222.477011,10.6261398 222.072813,10.5243161 221.659395,10.5045593 Z M302.97683,10.5045593 C302.169972,10.5045593 301.515265,10.7477204 301.012708,11.2340426 C300.51015,11.7203647 300.21046,12.3632219 300.112101,13.1610942 L305.428141,13.1610942 C305.428141,12.6352584 305.319023,12.1580547 305.103861,11.731003 C304.887162,11.3024316 304.582861,10.9954407 304.187885,10.8115502 C303.794446,10.6261398 303.390249,10.5243161 302.97683,10.5045593 Z M58.0000195,7.36 C58.4133594,7.58666016 58.7600195,7.9 59.0400195,8.3 C59.3200195,8.7 59.5066797,9.15333984 59.6000195,9.66 L55.3200195,11.78 C54.9066797,11.5 54.6266797,11.08 54.4800195,10.52 L58.0000195,7.36 Z M130.20002,7.78 C130.68002,7.78 131.10002,7.95666016 131.46002,8.31 C131.82002,8.66333984 132.00002,9.08 132.00002,9.56 C132.00002,10.04 131.82002,10.46 131.46002,10.82 C131.10002,11.18 130.68002,11.36 130.20002,11.36 C129.72002,11.36 129.30002,11.18 128.94002,10.82 C128.58002,10.46 128.40002,10.04 128.40002,9.56 C128.40002,9.33333984 128.46002,9.08 128.58002,8.8 C128.70002,8.52 128.91002,8.28 129.21002,8.08 C129.51002,7.88 129.84002,7.78 130.20002,7.78 Z M145.60002,7.78 C146.08002,7.78 146.50002,7.95666016 146.86002,8.31 C147.22002,8.66333984 147.40002,9.08 147.40002,9.56 C147.40002,10.04 147.22002,10.46 146.86002,10.82 C146.50002,11.18 146.08002,11.36 145.60002,11.36 C145.12002,11.36 144.70002,11.18 144.34002,10.82 C143.98002,10.46 143.80002,10.04 143.80002,9.56 C143.80002,9.33333984 143.86002,9.08 143.98002,8.8 C144.10002,8.52 144.31002,8.28 144.61002,8.08 C144.91002,7.88 145.24002,7.78 145.60002,7.78 Z M82.2400195,7.78 C82.7200195,7.78 83.1400195,7.95666016 83.5000195,8.31 C83.8600195,8.66333984 84.0400195,9.08 84.0400195,9.56 C84.0400195,10.04 83.8600195,10.46 83.5000195,10.82 C83.1400195,11.18 82.7200195,11.36 82.2400195,11.36 C81.7600195,11.36 81.3400195,11.18 80.9800195,10.82 C80.6200195,10.46 80.4400195,10.04 80.4400195,9.56 C80.4400195,9.33333984 80.5000195,9.08 80.6200195,8.8 C80.7400195,8.52 80.9500195,8.28 81.2500195,8.08 C81.5500195,7.88 81.8800195,7.78 82.2400195,7.78 Z M193.940371,0 C194.833294,0 195.615562,0.325227964 196.285638,0.975683891 C196.955714,1.62613982 197.290752,2.39209726 197.290752,3.27659574 C197.290752,4.16109422 196.955714,4.9331307 196.285638,5.59574468 C195.615562,6.25835866 194.834831,6.58966565 193.940371,6.58966565 C193.045912,6.58966565 192.265181,6.25835866 191.595105,5.59574468 C190.925028,4.93161094 190.58999,4.15957447 190.58999,3.27507599 C190.58999,2.85866261 190.702182,2.39209726 190.925028,1.8768997 C191.147875,1.36170213 191.539777,0.919452888 192.097662,0.551671733 C192.655546,0.183890578 193.270295,0 193.940371,0 Z M306.480898,2.11550152 C306.674544,2.11550152 306.862042,2.17629179 307.100258,2.27659574 C307.338473,2.37841945 307.54134,2.55471125 307.711933,2.80699088 C307.882525,3.05927052 307.967053,3.33738602 307.967053,3.63981763 C307.967053,4.04407295 307.81644,4.39665653 307.51675,4.69908815 C307.215523,5.00303951 306.889706,5.16413374 306.480898,5.16413374 L299.578806,5.16413374 C299.38516,5.16413374 299.197662,5.10334347 298.959447,5.00303951 C298.721231,4.90121581 298.518364,4.72492401 298.347771,4.47264438 C298.177179,4.22036474 298.092651,3.94224924 298.092651,3.63981763 C298.092651,3.23556231 298.243264,2.88297872 298.542954,2.58054711 C298.844181,2.27659574 299.169998,2.11550152 299.578806,2.11550152 L306.480898,2.11550152 Z" id="Combined-Shape"></path>
            </g>
            <g id="Group">
                <ellipse id="Oval" fill="url(#linearGradient-2)" cx="20.0664633" cy="20" rx="20.0664633" ry="20"></ellipse>
                <path d="M20.0664633,4.24230091 C11.3481281,4.24230091 4.25639877,11.3105413 4.25639877,20 C4.25639877,28.6894587 11.3481281,35.7576991 20.0664633,35.7576991 C28.7847985,35.7576991 35.8765278,28.6894587 35.8765278,20 C35.8765278,11.3105413 28.7847985,4.24230091 20.0664633,4.24230091 L20.0664633,4.24230091 Z M20.0664633,34.1134174 C12.2587551,34.1134174 5.90614464,27.7818478 5.90614464,20 C5.90614464,12.2181522 12.2587551,5.88658255 20.0664633,5.88658255 C27.8741714,5.88658255 34.2267819,12.2181522 34.2267819,20 C34.2267819,27.7818478 27.8741714,34.1134174 20.0664633,34.1134174 Z" id="Shape" fill="url(#linearGradient-3)"></path>
                <path d="M20.0664633,10.04477 C14.5591434,10.04477 10.0781505,14.5109212 10.0781505,20 C10.0781505,25.4890788 14.5591434,29.95523 20.0664633,29.95523 C25.5737832,29.95523 30.0547761,25.4890788 30.0547761,20 C30.0547761,14.5109212 25.5737832,10.04477 20.0664633,10.04477 L20.0664633,10.04477 Z M20.0664633,28.3109483 C15.4684092,28.3109483 11.7278963,24.5828246 11.7278963,20 C11.7278963,15.4171754 15.4684092,11.6890517 20.0664633,11.6890517 C24.6645174,11.6890517 28.4050303,15.4171754 28.4050303,20 C28.4050303,24.5828246 24.6645174,28.3109483 20.0664633,28.3109483 Z" id="Shape" fill="url(#linearGradient-4)"></path>
                <ellipse id="Oval" fill="#FFFFFF" cx="20.0664633" cy="20" rx="3.77454231" ry="3.76204043"></ellipse>
            </g>
        </g>
    </g>
</svg>