<?xml version="1.0" encoding="UTF-8"?>
<svg width="47px" height="47px" viewBox="0 0 47 47" version="1.1" xmlns="http://www.w3.org/2000/svg" xmlns:xlink="http://www.w3.org/1999/xlink">
    <title>forward</title>
    <g id="Page-1" stroke="none" stroke-width="1" fill="none" fill-rule="evenodd">
        <g id="forward" transform="translate(-0.000000, 0.000000)" fill-rule="nonzero">
            <circle id="Oval" fill="currentColor" cx="23.5" cy="23.5" r="23.5"></circle>
            <path d="M22.3674297,18.0244326 L30.0636979,28.7634115 C30.3672038,29.1869082 30.2699321,29.7762603 29.8464354,30.0797663 C29.6862025,30.1945999 29.4940221,30.2563539 29.2968893,30.2563539 L13.9043528,30.2563539 C13.3833295,30.2563539 12.9609566,29.833981 12.9609566,29.3129577 C12.9609566,29.1158249 13.0227106,28.9236444 13.1375442,28.7634115 L20.8338124,18.0244326 C21.1373184,17.6009359 21.7266705,17.5036642 22.1501672,17.8071702 C22.2339741,17.8672318 22.3073681,17.9406258 22.3674297,18.0244326 Z" id="Triangle" fill="#FFFFFF" transform="translate(21.600657, 23.943432) rotate(90.000000) translate(-21.600657, -23.943432) "></path>
            <path d="M30.3674297,18.0244326 L38.0636979,28.7634115 C38.3672038,29.1869082 38.2699321,29.7762603 37.8464354,30.0797663 C37.6862025,30.1945999 37.4940221,30.2563539 37.2968893,30.2563539 L21.9043528,30.2563539 C21.3833295,30.2563539 20.9609566,29.833981 20.9609566,29.3129577 C20.9609566,29.1158249 21.0227106,28.9236444 21.1375442,28.7634115 L28.8338124,18.0244326 C29.1373184,17.6009359 29.7266705,17.5036642 30.1501672,17.8071702 C30.2339741,17.8672318 30.3073681,17.9406258 30.3674297,18.0244326 Z" id="Triangle" fill="#FFFFFF" transform="translate(29.600657, 23.943432) rotate(90.000000) translate(-29.600657, -23.943432) "></path>
        </g>
    </g>
</svg>