<?xml version="1.0" encoding="UTF-8"?>
<svg width="30px" height="18px" viewBox="0 0 30 18" version="1.1" xmlns="http://www.w3.org/2000/svg" xmlns:xlink="http://www.w3.org/1999/xlink">
    <title>Plus informations</title>
    <g id="Page-1" stroke="none" stroke-width="1" fill="none" fill-rule="evenodd">
        <g id="01_Magazine-light" transform="translate(-194.000000, -464.000000)" fill="currentColor">
            <g id="Group-3-Copy" transform="translate(149.000000, 447.500000)">
                <g id="Icons/clock-Copy-2" transform="translate(44.999987, 16.999987)">
                    <path d="M18.206806,0.21886048 L18.3304682,0.315751741 L26.3549371,7.4471009 C26.7316,7.71308908 27.0734765,8.01716461 27.3734066,8.35288336 L29.5804682,10.3157517 C30.0964466,10.7743993 30.1429226,11.5644897 29.684275,12.0804682 C29.4281908,12.3685629 29.0687791,12.5102899 28.7114456,12.4994487 C28.3678965,15.3112639 25.7179604,17.5000134 22.5000134,17.5000134 C19.0482337,17.5000134 16.2500134,14.9816151 16.2500134,11.8750134 C16.2500134,11.7362835 16.2555936,11.5987266 16.266563,11.4625146 C15.9104418,11.3247151 15.4485341,11.2500134 14.8744148,11.2500134 C14.4304097,11.2500134 14.0481969,11.2947819 13.7243472,11.3798033 C13.7419145,11.5424526 13.7500134,11.7078818 13.7500134,11.8750134 C13.7500134,14.9816151 10.9517931,17.5000134 7.50001339,17.5000134 C4.28206639,17.5000134 1.6321303,15.3112639 1.28787032,12.4976637 C0.931230874,12.5102832 0.57182994,12.3685562 0.315751741,12.0804682 C-0.107615201,11.6041804 -0.100581114,10.8943297 0.308837217,10.4272015 L0.419558591,10.3157517 L2.62662013,8.35288336 C2.92655023,8.01716461 3.26842679,7.71308908 3.64508965,7.4471009 L11.6695586,0.315751741 C12.1855371,-0.14289578 12.9756275,-0.0964198699 13.434275,0.419558591 C13.857642,0.895846401 13.8506079,1.6056971 13.4411896,2.07282533 L13.3304682,2.18427504 L8.65030258,6.34507947 C10.4539418,6.64707158 11.9853331,7.64617779 12.8862962,9.02003595 C13.4825213,8.83811466 14.1469283,8.75001339 14.8744148,8.75001339 C15.6919618,8.75001339 16.4252365,8.86124881 17.0684294,9.09257087 C17.9606275,7.68172496 19.5141958,6.65241093 21.3497242,6.34507947 L16.6695586,2.18427504 C16.1535801,1.72562752 16.1071042,0.935537052 16.5657517,0.419558591 C16.9891187,-0.0567292191 17.6948985,-0.132967518 18.206806,0.21886048 Z M7.50001339,8.75001339 C6.62130429,8.75001339 5.82844656,8.9995571 5.20054334,9.40980911 L4.41165539,10.1108699 C3.99206804,10.6204286 3.75001339,11.2326299 3.75001339,11.8750134 C3.75001339,13.5387404 5.37365002,15.0000134 7.50001339,15.0000134 C9.62637676,15.0000134 11.2500134,13.5387404 11.2500134,11.8750134 C11.2500134,10.2112864 9.62637676,8.75001339 7.50001339,8.75001339 Z M22.5000134,8.75001339 C20.37365,8.75001339 18.7500134,10.2112864 18.7500134,11.8750134 C18.7500134,13.5387404 20.37365,15.0000134 22.5000134,15.0000134 C24.6263768,15.0000134 26.2500134,13.5387404 26.2500134,11.8750134 C26.2500134,11.2326299 26.0079587,10.6204286 25.5883714,10.1108699 L24.7994834,9.40980911 C24.1715802,8.9995571 23.3787225,8.75001339 22.5000134,8.75001339 Z" id="Combined-Shape"></path>
                </g>
            </g>
        </g>
    </g>
</svg>