<?xml version="1.0" encoding="UTF-8"?>
<svg width="388px" height="80px" viewBox="0 0 388 80" version="1.1" xmlns="http://www.w3.org/2000/svg" xmlns:xlink="http://www.w3.org/1999/xlink">
    <title>Inexplore TV</title>
    <defs>
        <linearGradient x1="14.3908561%" y1="88.8829929%" x2="69.5428029%" y2="28.6593947%" id="linearGradient-1">
            <stop stop-color="#74C4EF" offset="0%"></stop>
            <stop stop-color="#6FC2ED" offset="10%"></stop>
            <stop stop-color="#61BCEA" offset="21%"></stop>
            <stop stop-color="#4BB2E5" offset="32%"></stop>
            <stop stop-color="#38AAE1" offset="40%"></stop>
            <stop stop-color="#3195CD" offset="48%"></stop>
            <stop stop-color="#20619C" offset="64%"></stop>
            <stop stop-color="#20619C" offset="64%"></stop>
            <stop stop-color="#454A96" offset="79%"></stop>
            <stop stop-color="#613A91" offset="92%"></stop>
            <stop stop-color="#6C3490" offset="100%"></stop>
        </linearGradient>
        <linearGradient x1="83.4524322%" y1="1.42960517%" x2="19.1777873%" y2="94.7607011%" id="linearGradient-2">
            <stop stop-color="#74C4EF" offset="0%"></stop>
            <stop stop-color="#6FC2ED" offset="10%"></stop>
            <stop stop-color="#61BCEA" offset="21%"></stop>
            <stop stop-color="#4BB2E5" offset="32%"></stop>
            <stop stop-color="#38AAE1" offset="40%"></stop>
            <stop stop-color="#3195CD" offset="48%"></stop>
            <stop stop-color="#20619C" offset="64%"></stop>
            <stop stop-color="#20619C" offset="64%"></stop>
            <stop stop-color="#454A96" offset="79%"></stop>
            <stop stop-color="#613A91" offset="92%"></stop>
            <stop stop-color="#6C3490" offset="100%"></stop>
        </linearGradient>
        <linearGradient x1="18.8198419%" y1="12.3197041%" x2="87.3807577%" y2="95.1690859%" id="linearGradient-3">
            <stop stop-color="#74C4EF" offset="0%"></stop>
            <stop stop-color="#6FC2ED" offset="10%"></stop>
            <stop stop-color="#61BCEA" offset="21%"></stop>
            <stop stop-color="#4BB2E5" offset="32%"></stop>
            <stop stop-color="#38AAE1" offset="40%"></stop>
            <stop stop-color="#3195CD" offset="48%"></stop>
            <stop stop-color="#20619C" offset="64%"></stop>
            <stop stop-color="#20619C" offset="64%"></stop>
            <stop stop-color="#454A96" offset="79%"></stop>
            <stop stop-color="#613A91" offset="92%"></stop>
            <stop stop-color="#6C3490" offset="100%"></stop>
        </linearGradient>
    </defs>
    <g id="Inrees.tv" stroke="none" stroke-width="1" fill="none" fill-rule="evenodd">
        <g id="01_Langding_page" transform="translate(-87.000000, -114.000000)" fill-rule="nonzero">
            <g id="Group-19" transform="translate(87.000000, 114.000000)">
                <g id="Group-17" transform="translate(109.669979, 13.840000)">
                    <g id="Group" fill="#FFFFFF">
                        <path d="M2.27111599,42.9057751 L2.27111599,18.8449848 C3.68979414,18.6109422 5.1484784,18.4954407 6.64716877,18.4954407 C8.06584691,18.4954407 9.54299553,18.6109422 11.081692,18.8449848 L11.081692,42.9057751 C9.66301385,43.1398176 8.18278785,43.2553191 6.64716877,43.2553191 C5.22849062,43.2553191 3.76980636,43.1398176 2.27111599,42.9057751 Z" id="Path"></path>
                        <path d="M2.01261499,11.1884498 C0.670871662,9.86322188 0,8.31914894 0,6.55015198 C0,5.71732523 0.224649685,4.78419453 0.670871662,3.75379939 C1.11709364,2.72340426 1.90182884,1.83890578 3.01892248,1.10334347 C4.13601612,0.367781155 5.3669733,0 6.70871662,0 C8.49668193,0 10.0630749,0.650455927 11.4048183,1.95136778 C12.7465616,3.25227964 13.4174332,4.78419453 13.4174332,6.55319149 C13.4174332,8.32218845 12.7465616,9.8662614 11.4048183,11.1914894 C10.0630749,12.5167173 8.49975932,13.1793313 6.70871662,13.1793313 C4.91767393,13.1793313 3.35435831,12.5167173 2.01261499,11.1914894 L2.01261499,11.1884498 Z" id="Path"></path>
                        <path d="M35.9008661,15.1094225 C37.6365157,15.6930091 39.0551939,16.5106383 40.1569006,17.56231 C41.2616846,18.6139818 42.0895033,19.8693009 42.6403567,21.3282675 C43.19121,22.787234 43.4681754,24.3738602 43.4681754,26.0881459 L43.4681754,42.9057751 C42.0094911,43.1398176 40.5323425,43.2553191 39.0336521,43.2553191 C37.5349618,43.2553191 36.0978193,43.1398176 34.5991289,42.9057751 L34.5991289,27.4893617 C34.5991289,26.5927052 34.4421819,25.7082067 34.1252104,24.8328267 C33.8082389,23.9574468 33.2173795,23.2857143 32.3526321,22.8176292 C31.4848072,22.3495441 30.4600354,22.1155015 29.2783165,22.1155015 C28.8844102,22.1155015 28.2227707,22.1823708 27.2964754,22.3191489 C26.3701802,22.4559271 25.4531171,22.775076 24.5483635,23.2826748 L24.5483635,42.9057751 C23.0896793,43.1398176 21.6125307,43.2553191 20.1138403,43.2553191 C18.6951622,43.2553191 17.2364779,43.1398176 15.7377875,42.9057751 L15.7377875,18.8449848 C16.6456185,18.0273556 17.9165817,17.2279635 19.5506774,16.449848 C21.1878504,15.6717325 22.9419644,15.106383 24.8130193,14.7568389 C26.6840742,14.4072948 28.3889499,14.231003 29.9276464,14.231003 C32.1741433,14.231003 34.1652165,14.5227964 35.8977887,15.106383 L35.9008661,15.1094225 Z" id="Path"></path>
                        <path d="M75.1622453,31.2279635 L56.4793928,31.2279635 C56.99024,35.0030395 59.2982847,36.893617 63.3973721,36.893617 C64.6190971,36.893617 65.871596,36.6990881 67.1517915,36.3100304 C68.431987,35.9209726 69.9399095,35.1823708 71.6755591,34.0911854 C72.5433839,34.7537994 73.2634939,35.6291793 73.8328116,36.7203647 C74.4052067,37.8115502 74.7498747,38.899696 74.8668156,39.9908815 C71.3985938,42.5987842 67.2595003,43.9027356 62.4495351,43.9027356 C60.3199792,43.9027356 58.3319833,43.5714286 56.4793928,42.9088146 C54.6268022,42.2462006 53.0296353,41.2917933 51.6909693,40.0486322 C50.349226,38.8024316 49.315222,37.2644377 48.5858798,35.4346505 C47.8565377,33.6048632 47.4934054,31.56231 47.4934054,29.3039514 C47.4934054,27.2006079 47.8596151,25.224924 48.5858798,23.3768997 C49.315222,21.5288754 50.349226,19.9300912 51.6909693,18.5896657 C53.0296353,17.2462006 54.5991057,16.2158055 56.3901484,15.4954407 C58.1842685,14.775076 60.1045617,14.4164134 62.1541054,14.4164134 C64.0867081,14.4164134 65.8777508,14.7173252 67.5333882,15.3221884 C69.1890256,15.9270517 70.6077038,16.781155 71.7894227,17.8905775 C72.9711416,19 73.8789725,20.3525836 74.509838,21.9483283 C75.1407036,23.5440729 75.4545977,25.2765957 75.4545977,27.1458967 C75.4545977,28.7021277 75.3561211,30.0668693 75.1591679,31.2340426 L75.1622453,31.2279635 Z M67.1210176,26.3221884 C67.1210176,25.2705167 66.9025227,24.3161094 66.4716877,23.4620061 C66.0377753,22.6048632 65.4284514,21.9908815 64.6375615,21.6231003 C63.8497489,21.2522796 63.0403945,21.0486322 62.2125758,21.0091185 C60.5969445,21.0091185 59.2859751,21.4954407 58.2796676,22.4680851 C57.2733601,23.4407295 56.6732685,24.7264438 56.4763154,26.3221884 L67.1179402,26.3221884 L67.1210176,26.3221884 Z" id="Shape"></path>
                        <path d="M107.681057,42.7902736 C107.484103,42.9057751 106.813232,43.0151976 105.671519,43.112462 C104.529806,43.2097264 103.34501,43.2583587 102.123285,43.2583587 C100.310701,43.2583587 98.8520162,43.1793313 97.7472322,43.0243161 L91.8355603,34.4984802 L86.3947296,43.0243161 C85.0560637,43.1793313 83.6743142,43.2583587 82.2556361,43.2583587 C79.8521922,43.2583587 78.0396077,43.1033435 76.8178827,42.7902736 L86.6901593,29.0668693 L76.9932941,15.7507599 C77.4672127,15.556231 78.3811984,15.3799392 79.741406,15.224924 C81.1016137,15.0699088 82.4525892,14.9908815 83.7912552,14.9908815 C84.8960392,14.9908815 85.8623406,15.0486322 86.6870819,15.1671733 L92.2448536,23.6352584 L97.5071955,15.1671733 C98.5719735,15.0516717 99.6367514,14.9908815 100.701529,14.9908815 C101.569354,14.9908815 102.671061,15.0577508 104.012804,15.1945289 C105.354548,15.331307 106.339313,15.5167173 106.970179,15.7477204 L97.393332,29.1215805 L107.681057,42.787234 L107.681057,42.7902736 Z" id="Path"></path>
                        <path d="M129.859828,15.3130699 C131.770889,15.9179331 133.426526,16.8206687 134.82674,18.0273556 C136.226954,19.2340426 137.310196,20.7629179 138.079544,22.6109422 C138.848892,24.4589666 139.233567,26.5714286 139.233567,28.9483283 C139.233567,31.325228 138.830428,33.2705167 138.021074,35.1398176 C137.211719,37.0091185 136.10078,38.5957447 134.679025,39.899696 C133.260347,41.2036474 131.613942,42.1975684 129.742887,42.8784195 C127.871832,43.5592705 125.908455,43.899696 123.858911,43.899696 C122.046327,43.899696 120.44916,43.7234043 119.070488,43.3738602 L119.070488,53.6504559 C117.611804,53.8844985 116.134655,54 114.635965,54 C113.217287,54 111.758602,53.8844985 110.259912,53.6504559 L110.259912,18.668693 C111.875543,17.4224924 113.835843,16.4012158 116.143887,15.6018237 C118.448855,14.8024316 120.963085,14.4042553 123.6835,14.4042553 C125.889991,14.4042553 127.951844,14.7051672 129.862905,15.3100304 L129.859828,15.3130699 Z M126.373141,35.7234043 C127.49639,35.3343465 128.441149,34.556231 129.210498,33.3860182 C129.979846,32.218845 130.36452,30.8176292 130.36452,29.1823708 C130.36452,27.5471125 129.979846,26.212766 129.210498,25.0668693 C128.441149,23.9179331 127.474848,23.1398176 126.314671,22.7294833 C125.151416,22.3191489 124.058942,22.1155015 123.03417,22.1155015 C121.655498,22.1155015 120.335296,22.3677812 119.073565,22.8753799 L119.073565,35.6048632 C120.098337,36.0729483 121.458545,36.3069909 123.154188,36.3069909 C124.17896,36.3069909 125.25297,36.112462 126.376219,35.7234043 L126.373141,35.7234043 Z" id="Shape"></path>
                        <path d="M232.05697,10.3282675 C232.875556,10.3282675 233.527964,10.006079 234.131133,9.39817629 C234.731224,8.79331307 235.032809,8.0881459 235.032809,7.27963526 C235.032809,6.67477204 234.863552,6.11854103 234.521962,5.61398176 C234.180371,5.10942249 233.774155,4.75683891 233.297159,4.55319149 C232.820163,4.35258359 232.444721,4.23100304 232.05697,4.23100304 L218.236398,4.23100304 C217.417812,4.23100304 216.765404,4.55319149 216.162235,5.16109422 C215.562144,5.76595745 215.260559,6.47112462 215.260559,7.27963526 C215.260559,7.88449848 215.429816,8.44072948 215.771406,8.94528875 C216.112997,9.44984802 216.519213,9.80243161 216.996209,10.006079 C217.473205,10.2066869 217.848647,10.3282675 218.236398,10.3282675 L232.05697,10.3282675 Z" id="Path"></path>
                        <path d="M165.259079,42.8176292 C163.388024,42.1367781 161.760083,41.1519757 160.381411,39.8693009 C159.002739,38.5835866 157.937961,37.0182371 157.187077,35.1671733 C156.43927,33.3191489 156.063829,31.2826748 156.063829,29.0638298 C156.063829,26.8449848 156.448503,24.8784195 157.217851,23.0486322 C157.987199,21.218845 159.061209,19.6413374 160.439881,18.3191489 C161.818553,16.993921 163.464959,15.9817629 165.37602,15.2826748 C167.287081,14.5805471 169.327392,14.231003 171.496954,14.231003 C173.666516,14.231003 175.694518,14.5805471 177.587115,15.2826748 C179.479711,15.9848024 181.113807,16.9848024 182.495557,18.2887538 C183.874229,19.5927052 184.939007,21.1702128 185.68989,23.0182371 C186.437697,24.8662614 186.813139,26.881459 186.813139,29.0638298 C186.813139,31.2462006 186.428465,33.2006079 185.659117,35.0486322 C184.889768,36.8966565 183.815758,38.4741641 182.437086,39.7781155 C181.058414,41.0820669 179.412009,42.0851064 177.500948,42.7841945 C175.589887,43.4863222 173.549575,43.8358663 171.380013,43.8358663 C169.210451,43.8358663 167.133211,43.4954407 165.259079,42.8145897 L165.259079,42.8176292 Z M176.196133,34.5258359 C177.359388,33.1428571 177.941015,31.3221884 177.941015,29.0668693 C177.941015,26.8115502 177.359388,24.9878419 176.196133,23.6079027 C175.032879,22.224924 173.448021,21.5349544 171.435406,21.5349544 C169.422791,21.5349544 167.828702,22.224924 166.646983,23.6079027 C165.465264,24.9908815 164.874405,26.8115502 164.874405,29.0668693 C164.874405,31.3221884 165.465264,33.1458967 166.646983,34.5258359 C167.828702,35.9088146 169.425869,36.5987842 171.435406,36.5987842 C173.444944,36.5987842 175.032879,35.9088146 176.196133,34.5258359 Z" id="Shape"></path>
                        <path d="M209.964366,15.1094225 C209.884354,18.1458967 209.056535,20.656535 207.48091,22.6413374 C206.496144,22.3677812 205.372896,22.231003 204.111165,22.231003 C202.338586,22.231003 200.898366,22.5045593 199.79666,23.0486322 L199.79666,42.9027356 C198.377982,43.1367781 196.900833,43.2522796 195.362136,43.2522796 C193.943458,43.2522796 192.484774,43.1367781 190.986084,42.9027356 L190.986084,18.550152 C191.813902,17.8115502 192.937151,17.0790274 194.355829,16.3617021 C195.774507,15.6413374 197.303971,15.1155015 198.938067,14.7841945 C200.57524,14.4528875 202.083163,14.2887538 203.461835,14.2887538 C206.062232,14.2887538 208.231794,14.56231 209.964366,15.106383 L209.964366,15.1094225 Z" id="Path"></path>
                        <path d="M237.990184,31.2279635 L219.307331,31.2279635 C219.818178,35.0030395 222.126223,36.893617 226.22531,36.893617 C227.447035,36.893617 228.699534,36.6990881 229.97973,36.3100304 C231.259925,35.9209726 232.767848,35.1823708 234.503497,34.0911854 C235.371322,34.7537994 236.091432,35.6291793 236.66075,36.7203647 C237.233145,37.8115502 237.577813,38.899696 237.694754,39.9908815 C234.226532,42.5987842 230.087438,43.9027356 225.277473,43.9027356 C223.147917,43.9027356 221.159922,43.5714286 219.307331,42.9088146 C217.45474,42.2462006 215.857573,41.2917933 214.518908,40.0486322 C213.177164,38.8024316 212.14316,37.2644377 211.413818,35.4346505 C210.684476,33.6048632 210.321344,31.56231 210.321344,29.3039514 C210.321344,27.2006079 210.687553,25.224924 211.413818,23.3768997 C212.14316,21.5288754 213.177164,19.9300912 214.518908,18.5896657 C215.857573,17.2462006 217.427044,16.2158055 219.218087,15.4954407 C221.012207,14.775076 222.9325,14.4164134 224.982044,14.4164134 C226.914646,14.4164134 228.705689,14.7173252 230.361326,15.3221884 C232.016964,15.9270517 233.435642,16.781155 234.617361,17.8905775 C235.79908,19 236.706911,20.3525836 237.337776,21.9483283 C237.968642,23.5440729 238.282536,25.2765957 238.282536,27.1458967 C238.282536,28.7021277 238.184059,30.0668693 237.987106,31.2340426 L237.990184,31.2279635 Z M229.948956,26.3221884 C229.948956,25.2705167 229.730461,24.3161094 229.299626,23.4620061 C228.865713,22.6048632 228.25639,21.9908815 227.4655,21.6231003 C226.677687,21.2522796 225.868333,21.0486322 225.040514,21.0091185 C223.424883,21.0091185 222.113913,21.4954407 221.107606,22.4680851 C220.101298,23.4407295 219.501207,24.7264438 219.304254,26.3221884 L229.945878,26.3221884 L229.948956,26.3221884 Z" id="Shape"></path>
                        <path d="M143.067998,7.6231003 L143.067998,42.9088146 C144.606695,43.1428571 146.102308,43.2583587 147.560992,43.2583587 C149.136617,43.2583587 150.595301,43.1428571 151.937045,42.9088146 L151.937045,6.11854103 C149.06276,6.8449848 146.09923,7.35258359 143.067998,7.62613982 L143.067998,7.6231003 Z" id="Path"></path>
                    </g>
                    <g id="Group" transform="translate(242.287284, 24.000000)" fill="#74C4EF">
                        <path d="M16.0873297,0.115691932 L0.17795028,0.115691932 L0.109267716,0.310020608 C0.0374632168,0.519297644 0,0.719605664 0,0.907954996 C0,1.09630433 0.0374632168,1.29661235 0.109267716,1.50588938 L0.17795028,1.70021806 L7.24288859,1.70021806 L7.24288859,19.7967023 L7.44269241,19.8624751 C7.65810591,19.9312375 7.87976327,19.9671136 8.0982987,19.9671136 C8.33868768,19.9671136 8.56971085,19.9312375 8.78512435,19.8624751 L8.98492817,19.7967023 L8.98492817,1.70021806 L16.0810858,1.70021806 L16.1497684,1.50588938 C16.2215729,1.29960202 16.2590361,1.099294 16.2590361,0.907954996 C16.2590361,0.716615992 16.2215729,0.516307972 16.1497684,0.310020608 L16.0810858,0.115691932 L16.0873297,0.115691932 Z" id="Path"></path>
                        <path d="M35.830445,0.175485371 C35.5838121,0.0558984931 35.2965941,-0.0038949457 34.9594252,0.00208439818 L34.2382582,0.124660948 L34.1945512,0.307030936 C32.8271437,5.92761418 30.5387656,11.8830407 27.3856115,18.0208372 C24.5352851,12.8756118 22.1782244,6.91719559 20.376868,0.301051592 L20.3394048,0.166516355 L20.2051616,0.11270226 C19.8180417,-0.0457503528 19.1874109,-0.0487400248 18.7097549,0.178475043 L18.4943414,0.28311356 L18.5567801,0.507338956 C19.2841909,3.07247748 20.0771623,5.56885355 20.9200847,7.92172537 C21.763007,10.2835662 22.6870997,12.5019028 23.6642653,14.5109623 C24.6414309,16.5230115 25.5811332,18.2899077 26.452153,19.7638159 L26.5083478,19.8594854 L26.6144936,19.8953615 C26.8299071,19.9641239 27.0827838,20 27.363758,20 C27.6790734,20 27.9194623,19.9641239 28.1036565,19.8893821 L28.2004365,19.8505164 L28.2503874,19.7608262 C31.762564,13.410763 34.3662576,6.93214395 35.9865417,0.504349284 L36.0427365,0.286103232 L35.8335669,0.184454386 L35.830445,0.175485371 Z" id="Path"></path>
                    </g>
                </g>
                <g id="Group">
                    <ellipse id="Oval" fill="url(#linearGradient-1)" cx="40.1805694" cy="40" rx="40.1805694" ry="40"></ellipse>
                    <path d="M40.1805694,8.48460182 C22.7231995,8.48460182 8.52290331,22.6210826 8.52290331,40 C8.52290331,57.3789174 22.7231995,71.5153982 40.1805694,71.5153982 C57.6379393,71.5153982 71.8382355,57.3789174 71.8382355,40 C71.8382355,22.6210826 57.6379393,8.48460182 40.1805694,8.48460182 L40.1805694,8.48460182 Z M40.1805694,68.2268349 C24.5466157,68.2268349 11.8263119,55.5636956 11.8263119,40 C11.8263119,24.4363044 24.5466157,11.7731651 40.1805694,11.7731651 C55.8145232,11.7731651 68.5348269,24.4363044 68.5348269,40 C68.5348269,55.5636956 55.8145232,68.2268349 40.1805694,68.2268349 Z" id="Shape" fill="url(#linearGradient-2)"></path>
                    <path d="M40.1805694,20.0895401 C29.1528538,20.0895401 20.180229,29.0218424 20.180229,40 C20.180229,50.9781576 29.1528538,59.9104599 40.1805694,59.9104599 C51.208285,59.9104599 60.1809098,50.9781576 60.1809098,40 C60.1809098,29.0218424 51.208285,20.0895401 40.1805694,20.0895401 L40.1805694,20.0895401 Z M40.1805694,56.6218966 C30.9735443,56.6218966 23.4836376,49.1656492 23.4836376,40 C23.4836376,30.8343508 30.9735443,23.3781034 40.1805694,23.3781034 C49.3875945,23.3781034 56.8775012,30.8343508 56.8775012,40 C56.8775012,49.1656492 49.3875945,56.6218966 40.1805694,56.6218966 Z" id="Shape" fill="url(#linearGradient-3)"></path>
                    <ellipse id="Oval" fill="#FFFFFF" cx="40.1805694" cy="40" rx="7.55804633" ry="7.52408086"></ellipse>
                </g>
            </g>
        </g>
    </g>
</svg>