<?xml version="1.0" encoding="UTF-8"?>
<svg width="24px" height="24px" viewBox="0 0 24 24" version="1.1" xmlns="http://www.w3.org/2000/svg" xmlns:xlink="http://www.w3.org/1999/xlink">
    <title>A708B125-335E-4ECB-884D-6A6CCE5479F5@1,5x</title>
    <defs>
        <path d="M9.91666667,0 C15.3934904,0 19.8333333,4.4398429 19.8333333,9.91666667 C19.8333333,12.2346378 19.0380422,14.3668587 17.7054377,16.0553518 L22.9916246,21.3417088 C23.4472363,21.7973204 23.4472363,22.5360129 22.9916246,22.9916246 C22.5360129,23.4472363 21.7973204,23.4472363 21.3417088,22.9916246 L21.3417088,22.9916246 L16.0553518,17.7054377 C14.3668587,19.0380422 12.2346378,19.8333333 9.91666667,19.8333333 C4.4398429,19.8333333 0,15.3934904 0,9.91666667 C0,4.4398429 4.4398429,0 9.91666667,0 Z M9.91666667,2.33333333 C5.72850731,2.33333333 2.33333333,5.72850731 2.33333333,9.91666667 C2.33333333,14.104826 5.72850731,17.5 9.91666667,17.5 C11.9813451,17.5 13.8533049,16.6748736 15.2207818,15.3363852 L15.2750421,15.2750421 C15.2956638,15.2544203 15.3168655,15.234732 15.3385946,15.215977 C16.6760887,13.8505472 17.5,11.9798243 17.5,9.91666667 C17.5,5.72850731 14.104826,2.33333333 9.91666667,2.33333333 Z" id="path-1"></path>
    </defs>
    <g id="Inrees.tv" stroke="none" stroke-width="1" fill="none" fill-rule="evenodd">
        <g id="05_nouveautés" transform="translate(-33.000000, -597.000000)">
            <g id="Icons/align_center-Copy-4" transform="translate(33.333333, 597.333333)">
                <mask id="mask-2" fill="white">
                    <use xlink:href="#path-1"></use>
                </mask>
                <use id="Combined-Shape" fill="currentColor" xlink:href="#path-1"></use>
            </g>
        </g>
    </g>
</svg>