<?xml version="1.0" encoding="UTF-8"?>
<svg width="24px" height="24px" viewBox="0 0 24 24" version="1.1" xmlns="http://www.w3.org/2000/svg" xmlns:xlink="http://www.w3.org/1999/xlink">
    <title>Search</title>
    <g id="Page-1" stroke="none" stroke-width="1" fill="none" fill-rule="evenodd">
        <path d="M10.2499997,0.333333 C15.7268234,0.333333 20.1666663,4.7731759 20.1666663,10.2499997 C20.1666663,12.5679708 19.3713752,14.7001917 18.0387707,16.3886848 L23.3249576,21.6750418 C23.7805693,22.1306534 23.7805693,22.8693459 23.3249576,23.3249576 C22.8693459,23.7805693 22.1306534,23.7805693 21.6750418,23.3249576 L21.6750418,23.3249576 L16.3886848,18.0387707 C14.7001917,19.3713752 12.5679708,20.1666663 10.2499997,20.1666663 C4.7731759,20.1666663 0.333333,15.7268234 0.333333,10.2499997 C0.333333,4.7731759 4.7731759,0.333333 10.2499997,0.333333 Z M10.2499997,2.66666633 C6.06184031,2.66666633 2.66666633,6.06184031 2.66666633,10.2499997 C2.66666633,14.438159 6.06184031,17.833333 10.2499997,17.833333 C12.3146781,17.833333 14.1866379,17.0082066 15.5541148,15.6697182 L15.6083751,15.6083751 C15.6289968,15.5877533 15.6501985,15.568065 15.6719276,15.54931 C17.0094217,14.1838802 17.833333,12.3131573 17.833333,10.2499997 C17.833333,6.06184031 14.438159,2.66666633 10.2499997,2.66666633 Z" id="search" fill="#000000" fill-rule="nonzero"></path>
    </g>
</svg>